<svg width="261" height="50" viewBox="0 0 261 50" xmlns="http://www.w3.org/2000/svg" alt="">
    <path class="logo__asterisk" d="M14.24.51a2.94 2.94 0 0 1 1.13 2.31v.02c0 3.53-1.92 5.72-2.2 10.53 3.91-2.65 4.77-5.46 7.73-7.23l.04-.02c.79-.45 1.7-.47 2.48-.13a3.23 3.23 0 0 1 1.68 3.02c-.1.87-.58 1.69-1.37 2.16l-.01.02c-2.96 1.76-5.75 1.13-9.92 3.3 4.17 2.16 6.96 1.53 9.92 3.3a2.91 2.91 0 0 1 1.39 2.18 3.24 3.24 0 0 1-1.69 3 2.73 2.73 0 0 1-2.52-.14c-2.96-1.77-3.82-4.58-7.72-7.23.27 4.82 2.2 7 2.2 10.53v.04a2.94 2.94 0 0 1-1.14 2.29c-.98.68-2.39.68-3.37 0a2.94 2.94 0 0 1-1.13-2.31v-.02c0-3.53 1.93-5.71 2.2-10.53-3.9 2.65-4.77 5.46-7.73 7.23l-.03.02c-.8.45-1.71.47-2.49.13a3.23 3.23 0 0 1-1.68-3.02c.1-.87.58-1.69 1.37-2.16l.01-.01c2.96-1.77 5.75-1.14 9.92-3.3-4.17-2.17-6.96-1.54-9.92-3.3l-.03-.03A2.91 2.91 0 0 1 .01 9.01a3.24 3.24 0 0 1 1.68-3.02 2.73 2.73 0 0 1 2.52.15c2.96 1.77 3.82 4.58 7.72 7.23-.26-4.82-2.19-7-2.19-10.53V2.8c.01-.94.46-1.77 1.13-2.29a3.02 3.02 0 0 1 3.37 0z" fill="#FFF"></path>
    <path class="logo__spark" d="M61.89 18.52c5.86 0 10.61 4.9 10.61 10.95v3.68c0 6.05-4.75 10.95-10.61 10.95-2.56 0-4.9-.93-6.74-2.49v7.98c0 .2-.16.36-.35.36h-3.2a.36.36 0 0 1-.35-.36V20.1c0-.2.16-.36.35-.36h3.2c.2 0 .35.16.35.36v.9a10.38 10.38 0 0 1 6.74-2.48zm64.76-4.29c.16 0 .28.13.28.29v16.5l11.33-11.69a.29.29 0 0 1 .24-.12h4.05c.23 0 .37.26.24.45L132.4 30.69l10.39 12.96c.13.2-.01.45-.24.45h-4.05a.29.29 0 0 1-.24-.12l-8.63-10.34-2.7 2.86v7.45c0 .15-.12.28-.27.28h-3.36a.29.29 0 0 1-.3-.28V14.52c0-.16.13-.29.29-.29zm-39.92 4.29c2.55 0 4.89.93 6.72 2.47v-.88c0-.2.16-.36.35-.36H97c.2 0 .35.16.35.36v23.76c0 .2-.15.36-.35.36h-3.2a.36.36 0 0 1-.35-.36v-2.26a10.4 10.4 0 0 1-6.72 2.47c-5.87 0-10.63-4.9-10.63-10.94v-3.68c0-6.04 4.76-10.94 10.63-10.94zm26.02 0c2.9 0 5.53 1.17 7.46 3.07l.1.1c.14.15.14.38 0 .52l-2.28 2.33a.35.35 0 0 1-.5 0l-.03-.03a6.72 6.72 0 0 0-4.75-1.97c-3.75 0-6.8 3.1-6.8 6.92v14.41c0 .2-.16.36-.36.36h-3.24a.36.36 0 0 1-.35-.36l.01-10.28H102V20.11c0-.2.16-.36.36-.36h3.23c.2 0 .36.16.36.36V21a10.6 10.6 0 0 1 6.8-2.47zm-75.4 0c3.68 0 6.37.86 9.28 2.97l.82.59c.17.12.2.37.05.53l-2.38 2.68a.34.34 0 0 1-.46.04l-.64-.5a10.3 10.3 0 0 0-6.74-2.29c-2.79 0-4.89 1.3-4.89 3 0 1.2 0 2.6 6.29 3.76 4.3.8 9.22 2.35 9.22 7.46 0 4.43-3.9 7.47-9.51 7.47-4.16 0-7.5-1.2-10.83-3.87l-.78-.63a.36.36 0 0 1-.03-.53l2.47-2.56c.12-.12.3-.13.43-.04l.64.53c2.66 2.22 4.96 3.08 8.2 3.08 2.97 0 5.11-1.36 5.11-3.23 0-1.16 0-2.52-6.07-3.63-4.67-.85-9.44-2.41-9.44-7.58 0-4.16 3.98-7.25 9.26-7.25zm24.54 4.02a6.84 6.84 0 0 0-6.72 6.93v3.68a6.83 6.83 0 0 0 6.72 6.93c3.7 0 6.71-3.11 6.71-6.93v-3.68a6.83 6.83 0 0 0-6.71-6.93zm24.84 0A6.83 6.83 0 0 0 80 29.46v3.68a6.83 6.83 0 0 0 6.73 6.92c3.7 0 6.72-3.1 6.72-6.92v-3.68a6.83 6.83 0 0 0-6.72-6.92z" fill="#FFF"></path>
    <path class="logo__notes" d="M204.5 14.23a.3.3 0 0 1 .29.3v4.58h8c.16 0 .3.13.3.29l-.01 1.01a.3.3 0 0 1-.3.29h-8v15.98c0 2.15.17 2.96.63 3.79.37.67.93 1.22 1.62 1.57.85.45 1.68.6 3.9.6h2.46c.16 0 .3.13.3.3v1a.3.3 0 0 1-.3.3h-2.46c-2.7 0-3.68-.28-4.67-.8a5.5 5.5 0 0 1-2.3-2.22c-.53-.96-.81-1.91-.81-4.54V20.7h-6.17a.3.3 0 0 1-.3-.29V19.4a.3.3 0 0 1 .3-.3h6.17v-4.58a.3.3 0 0 1 .3-.29h1.04zm21.75 4.3c5.56-.12 10.1 4.59 10.1 10.4v2.91c0 .2-.15.36-.34.36h-17.94v1.36c0 4.8 3.54 8.93 8.1 9.08h1.67c2.03 0 4-.67 5.49-1.94.12-.1.29-.1.41-.02l.73.54c.19.14.2.43.03.58-1.93 1.72-4.5 2.43-7.28 2.43h-1.67c-5.17-.47-9.03-5.23-9.03-10.69v-4.26c0-5.73 4.27-10.65 9.73-10.76zm-42.32-.01c5.48 0 9.92 4.66 9.92 10.4v4.9c0 5.76-4.44 10.41-9.92 10.41-5.48 0-9.92-4.65-9.92-10.4v-4.9c0-5.75 4.44-10.41 9.92-10.41zm-25.5 0c5.47 0 9.91 4.66 9.91 10.4v15.02c0 .16-.12.3-.28.3h-.99a.29.29 0 0 1-.28-.3V28.92c0-4.84-3.75-8.78-8.37-8.78-4.61 0-8.36 3.94-8.36 8.78v15.02c0 .16-.13.3-.28.3h-1a.29.29 0 0 1-.27-.3V20.25c0-.17.11-.3.25-.3h.9c.15 0 .26.13.26.3v3.31a9.83 9.83 0 0 1 8.5-5.04zm91.83.2c3.5 0 6.07.72 8.85 2.48l.07.04.36.23c.17.1.22.32.11.49l-.5.78a.37.37 0 0 1-.5.1l-.44-.27a13.75 13.75 0 0 0-7.95-2.2c-4.3 0-7.55 2.1-7.55 4.89 0 2.78 2.27 4.27 7.85 5.16l.42.06c2.76.44 9.25 1.47 9.25 6.78 0 3.72-3.97 6.53-9.22 6.53a15.3 15.3 0 0 1-8.85-2.47l-.43-.27a.35.35 0 0 1-.11-.49l.5-.78c.12-.16.34-.21.5-.1l.33.2.11.07c2.49 1.56 4.8 2.2 7.95 2.2 4.3 0 7.55-2.1 7.55-4.89 0-2.78-2.28-4.28-7.85-5.16l-.42-.07c-2.77-.43-9.25-1.46-9.25-6.77 0-3.73 3.97-6.53 9.22-6.53zm-66.33 1.43c-4.62 0-8.37 3.93-8.37 8.77v4.9c0 4.85 3.75 8.79 8.37 8.79 4.61 0 8.37-3.94 8.37-8.78v-4.9c0-4.85-3.76-8.78-8.37-8.78zm42.5 0c-4.6 0-8.36 3.94-8.36 8.79v1.64h16.73v-1.64c0-4.85-3.75-8.8-8.36-8.8z" fill="#FFF"></path>
</svg>